<svg xmlns="http://www.w3.org/2000/svg" xmlns:xlink="http://www.w3.org/1999/xlink" width="1080" zoomAndPan="magnify" viewBox="0 0 810 809.999993" height="1080" preserveAspectRatio="xMidYMid meet" version="1.0"><defs><clipPath id="a98994cbc9"><path d="M 124.539062 0 L 685.539062 0 L 685.539062 792 L 124.539062 792 Z M 124.539062 0 " clip-rule="nonzero"/></clipPath></defs><g clip-path="url(#a98994cbc9)"><path fill="#ffffff" d="M 685.039062 179.796875 C 685.285156 169.820312 684.792969 159.597656 671.933594 157.820312 C 671.871094 148.425781 671.347656 134.765625 669.078125 125.648438 C 667.144531 117.941406 665.207031 114.382812 658.945312 111.035156 C 651.546875 107.136719 642.953125 104.988281 634.601562 103.269531 C 622.96875 47.949219 628.648438 52.679688 575.417969 49.546875 C 487.835938 44.421875 395.617188 42.855469 308.589844 46.078125 C 307.574219 32.847656 301.742188 9.578125 289.863281 3.621094 C 284.828125 1.105469 257.691406 0 247.5625 0.890625 C 212.289062 3.898438 213.703125 22.6875 213.824219 51.789062 C 177.046875 54.917969 181.007812 50.714844 174.835938 102.898438 C 164.429688 103.972656 141.5625 106.398438 138.707031 115.578125 C 136.035156 124.113281 134.714844 151.742188 133.089844 152.875 C 126.335938 157.542969 125.597656 168.777344 125.105469 180.75 C 124.707031 190.175781 124.800781 201.625 134.59375 206.691406 C 137.539062 208.226562 155.558594 210.589844 158.84375 211.203125 C 172.074219 333.933594 206.179688 628.941406 230.433594 755.632812 C 230.953125 758.394531 233.195312 761.375 237.183594 762.695312 C 331.644531 800.699219 530.261719 798.519531 583.304688 768.832031 C 594.386719 762.632812 580.882812 810 650.414062 214.121094 C 656.796875 212.828125 685.222656 209.175781 685.164062 195.945312 C 685.070312 190.511719 684.917969 185.171875 685.039062 179.796875 Z M 146.535156 164.265625 C 145.03125 154.105469 146.441406 139.613281 147.761719 131.480469 C 166.949219 153.859375 585.824219 163.652344 658.824219 133.597656 C 660.234375 143.390625 660.207031 156.285156 659.867188 166.105469 C 575.476562 186.398438 301.652344 195.054688 146.535156 164.265625 Z M 651.886719 118.679688 C 653.480469 121.226562 641.941406 121.75 639.238281 122.453125 C 638.625 122.609375 638.929688 123.652344 636.90625 114.105469 C 642.613281 114.195312 650.414062 116.347656 651.886719 118.679688 Z M 609.183594 67.535156 C 609.152344 67.503906 609.152344 67.414062 609.125 67.351562 C 609.183594 67.472656 609.214844 67.535156 609.183594 67.535156 Z M 283.019531 17.40625 C 287.804688 25.570312 290.324219 37.390625 290.9375 46.816406 C 280.039062 47.304688 269.171875 47.890625 258.273438 48.535156 C 257.785156 37.882812 257.445312 25.570312 253.269531 16.300781 C 262.726562 15.777344 273.53125 16.546875 283.019531 17.40625 Z M 231.660156 50.34375 C 231.628906 39.691406 230.953125 26.15625 237.15625 20.660156 C 239.886719 26.984375 240.347656 42.699219 240.652344 49.699219 C 237.644531 49.914062 234.636719 50.128906 231.660156 50.34375 Z M 198.691406 68.949219 C 198.71875 68.949219 198.167969 69.164062 198.414062 69.039062 C 197.769531 69.195312 198.660156 68.949219 198.691406 68.949219 Z M 197.800781 69.4375 C 198.261719 68.363281 367.898438 50.527344 608.695312 67.136719 C 609.707031 67.199219 615.785156 99.214844 621.710938 125.371094 C 623.734375 134.367188 334.558594 145.324219 190.433594 126.324219 C 197 68.917969 197.832031 69.410156 197.800781 69.4375 Z M 173.546875 113.707031 C 173.210938 116.589844 172.933594 119.015625 172.414062 123.589844 C 154.484375 120.488281 154.363281 118.800781 150.003906 120.335938 C 150.863281 116.804688 169.957031 114.167969 173.546875 113.707031 Z M 632.453125 217.21875 C 630.273438 235.945312 628.09375 254.640625 625.945312 273.367188 C 525.378906 294.363281 313.808594 297.097656 181.46875 263.695312 C 178.613281 237.910156 177.445312 226.980469 176.066406 214.273438 C 331.214844 240.335938 532.378906 233.246094 632.453125 217.21875 Z M 572.777344 755.542969 C 525.042969 782.554688 333.761719 784.429688 246.457031 751.089844 C 242.25 727.945312 237.371094 697.09375 233.808594 673.730469 C 334.34375 700.777344 482.339844 703.203125 580.941406 676.921875 C 580.941406 676.984375 572.777344 755.511719 572.777344 755.542969 Z M 582.785156 659.425781 C 579.007812 659.640625 552.640625 669.585938 495.171875 675.789062 C 415.113281 684.507812 310.183594 679.59375 231.351562 657.554688 C 213.488281 538.078125 196.664062 399.8125 183.21875 279.660156 C 312.242188 311.339844 516.355469 310.480469 623.949219 290.375 C 610.257812 409.113281 595.433594 540.46875 582.785156 659.425781 Z M 140.300781 183.113281 C 140.363281 178.753906 141.007812 173.660156 141.160156 173.320312 C 141.160156 173.320312 152.367188 179.277344 247.101562 188.148438 C 323.816406 195.332031 409.738281 196.160156 485.808594 193.582031 C 679.390625 187.042969 667.113281 166.199219 667.417969 181.210938 C 667.480469 184.433594 667.449219 188.546875 667.234375 192.324219 C 621.402344 212.398438 336.617188 233.089844 145.398438 193.089844 C 143.984375 192.816406 140.179688 192.9375 140.300781 183.113281 Z M 140.300781 183.113281 " fill-opacity="1" fill-rule="nonzero"/></g></svg>